<svg width="25" height="24" viewBox="0 0 25 24" fill="none" xmlns="http://www.w3.org/2000/svg">
<path d="M8.66667 23.1346H6.11111C3.28832 23.1346 1 20.8462 1 18.0235V9.98319C1 8.19592 1.93356 6.53849 3.46201 5.61215L9.8509 1.7401C11.4792 0.753299 13.5208 0.753299 15.1491 1.7401L21.538 5.61215C23.0665 6.53849 24 8.19592 24 9.98319V18.0235C24 20.8462 21.7116 23.1346 18.8889 23.1346H16.3333M8.66667 23.1346V18.0235C8.66667 15.9063 10.3829 14.1901 12.5 14.1901C14.6172 14.1901 16.3333 15.9063 16.3333 18.0235V23.1346M8.66667 23.1346H16.3333" stroke="#FCF9F9" stroke-linecap="round" stroke-linejoin="round"/>
</svg>
