<svg width="277" height="292" viewBox="0 0 277 292" fill="none" xmlns="http://www.w3.org/2000/svg">
    <path d="M13.3265 188.758V248.758H264.327V188.758" stroke="black"/>
    <path d="M6.94432 142.885L7.8189 142.972L7.01122 151.076L12.5502 151.628L13.3249 143.854L14.1995 143.941L13.4248 151.715L20.0327 152.374L19.931 153.394L6.03496 152.009L6.94432 142.885Z" fill="black"/>
    <path d="M23.0434 123.049L9.80417 118.606L11.6373 113.144C12.441 110.749 13.9013 109.907 16.0184 110.617C17.8515 111.232 18.7147 112.968 18.608 115.823L26.2747 113.421L25.8272 114.754L18.2132 117.091L17.5559 116.871C18.0661 114.021 17.4571 112.305 15.7289 111.725C14.1365 111.191 13.042 111.813 12.4455 113.59L10.9914 117.923L23.3696 122.077L23.0434 123.049Z" fill="black"/>
    <path d="M27.3796 87.6359C30.8371 89.9495 33.6574 89.475 35.8407 86.2123C37.9841 83.0091 37.3271 80.2507 33.8696 77.9371C30.4554 75.6525 27.6766 76.1117 25.5332 79.3149C23.3499 82.5776 23.9654 85.3513 27.3796 87.6359ZM26.8037 88.6018C22.8701 85.9696 22.2031 82.711 24.8027 78.8261C27.3625 75.0007 30.6093 74.4041 34.5429 77.0363C38.4549 79.6541 39.1309 82.8756 36.5711 86.7011C33.9715 90.586 30.7157 91.2196 26.8037 88.6018Z" fill="black"/>
    <path d="M56.8491 56.7122L48.1456 45.7913L49.1766 44.9697L64.0901 48.7187L56.4699 39.1572L57.1955 38.579L65.8989 49.4999L65.2498 50.0173L49.5893 46.1143L57.5746 56.134L56.8491 56.7122Z" fill="black"/>
    <path d="M90.9524 16.7037L91.2818 17.5185L86.8454 19.3119L91.7499 31.444L90.7992 31.8283L85.8948 19.6962L81.549 21.453L81.2196 20.6382L90.9524 16.7037Z" fill="black"/>
    <path d="M130.539 7.11868L130.628 7.99301L122.526 8.82263L123.093 14.3601L130.865 13.5643L130.955 14.4386L123.183 15.2344L123.77 20.9662L132.008 20.1226L132.097 20.997L122.839 21.945L121.417 8.05275L130.539 7.11868Z" fill="black"/>
    <path d="M158.885 19.2738L162.153 5.69666L163.435 6.00513L169.641 20.0745L172.502 8.18733L173.404 8.4044L170.136 21.9816L169.329 21.7874L162.785 7.03409L159.787 19.4909L158.885 19.2738Z" fill="black"/>
    <path d="M203.283 36.9845C206.52 39.1126 209.326 38.3706 211.701 34.7584C213.796 31.5706 213.226 28.9126 209.989 26.7846L206.766 24.6654L200.06 34.8653L203.283 36.9845ZM198.72 35.0364L206.392 23.3677L210.554 26.1038C214.362 28.6074 215.057 31.698 212.639 35.3754C209.942 39.4771 206.663 40.2583 202.8 37.7189L198.72 35.0364Z" fill="black"/>
    <path d="M245.871 59.6214L235.261 67.2818L239.995 73.8375L239.282 74.352L233.949 66.965L245.271 58.79L245.871 59.6214Z" fill="black"/>
    <path d="M250.283 92.3172L249.874 91.3028L265.189 91.9404L265.645 93.0725L255.068 104.182L254.611 103.05L258.184 99.3768L255.843 93.5712L256.772 93.5233L258.857 98.6949L264.651 92.747L250.283 92.3172Z" fill="black"/>
    <path d="M257.118 131.655L270.977 129.938L271.71 135.849C272.036 138.485 271.124 139.937 268.972 140.203C267.396 140.399 266.15 139.582 265.235 137.754C265.144 139.825 264.187 140.974 262.365 141.199C259.697 141.53 258.184 140.251 257.826 137.363L257.118 131.655ZM258.685 137.148C258.962 139.384 260.134 140.374 262.201 140.117C264.03 139.891 264.771 138.379 264.424 135.581L264.328 134.806L265.016 134.721C265.707 137.915 266.961 139.4 268.776 139.175C270.391 138.975 271.076 137.88 270.829 135.89L270.231 131.063L258.117 132.564L258.685 137.148Z" fill="black"/>
    <circle cx="12.3265" cy="174.758" r="5" fill="#CF3D77"/>
    <circle cx="264.327" cy="174.758" r="5" fill="#CF3D77"/>
    <path d="M33 249.7C26.6 249.7 23.4 249.167 23.4 248.1C23.4 247.5 23.9 247.2 24.9 247.2H26.5C26.7667 247.267 27.0333 247.3 27.3 247.3C27.6333 247.3 27.9667 247.3 28.3 247.3C35.0333 247.3 41.3 246.267 47.1 244.2C53.0333 242.067 57.9 239.467 61.7 236.4C65.5667 233.2 68.6 229.8 70.8 226.2C73.0667 222.533 74.2 219.067 74.2 215.8C74.2 210.667 72.1667 206.6 68.1 203.6C65.7667 201.867 63.2667 200.667 60.6 200C58 199.333 55.2667 199 52.4 199H51.7C47.1667 199 41.6667 199.8 35.2 201.4C28.8 203 21.4667 205.333 13.2 208.4C11.8 208.4 11.1 207.367 11.1 205.3C11.1 204.633 11.4 204.167 12 203.9C12.3333 203.767 12.9 203.567 13.7 203.3C14.5 202.967 15.8333 202.533 17.7 202C23.7 200.2 29.4667 198.867 35 198C40.5333 197.067 45.7333 196.6 50.6 196.6C58.4 196.6 64.8667 198.467 70 202.2C75.0667 205.867 77.6 210.833 77.6 217.1C77.6 220.9 76.5 224.733 74.3 228.6C72.1667 232.467 69.2 235.967 65.4 239.1C61.6 242.3 56.8667 244.833 51.2 246.7C45.5333 248.7 39.4667 249.7 33 249.7ZM21.2 254.3C20.1333 254.3 19.2667 253.667 18.6 252.4C17.9333 251.2 17.6 249.433 17.6 247.1C17.6 238.9 22.2667 226.567 31.6 210.1C31.6 209.833 31.9333 209.133 32.6 208C33.3333 206.867 33.9333 205.867 34.4 205C35.2667 203.333 36.0667 202.5 36.8 202.5C37.5333 202.5 38.3667 202.7 39.3 203.1C40.2333 203.433 40.7 203.8 40.7 204.2C39.8333 205.667 38.9333 207.133 38 208.6C37.1333 210.067 36.2333 211.533 35.3 213C25.1 230.667 20 242.733 20 249.2C20 250 20.2333 250.967 20.7 252.1C21.1667 253.233 21.4 253.933 21.4 254.2L21.2 254.3ZM105.034 248.3C103.1 248.3 101.567 247.4 100.434 245.6C99.9669 244.667 99.5669 243.7 99.2336 242.7C98.9669 241.633 98.8336 240.4 98.8336 239C98.8336 237.667 98.9669 236.133 99.2336 234.4C99.5669 232.667 99.9669 230.7 100.434 228.5C97.8336 232.767 95.6669 236.233 93.9336 238.9C92.2003 241.5 90.8669 243.367 89.9336 244.5C88.2669 246.7 86.5669 247.8 84.8336 247.8C83.1669 247.8 81.7669 247.2 80.6336 246C79.5669 244.733 79.0336 243.367 79.0336 241.9C79.0336 239.167 80.5003 234.567 83.4336 228.1C86.3669 221.5 87.8336 218.133 87.8336 218L86.9336 216.2C86.9336 216 87.1669 215.9 87.6336 215.9C88.2336 215.9 89.3336 216.233 90.9336 216.9C92.6003 217.567 93.4336 218.133 93.4336 218.6C93.1003 219.267 92.4669 220.533 91.5336 222.4C90.6669 224.2 89.4669 226.633 87.9336 229.7C85.0003 235.9 83.5336 240 83.5336 242C83.5336 244.067 83.9669 245.1 84.8336 245.1C85.9003 245.1 87.4336 243.9 89.4336 241.5C90.5003 240.167 91.5003 238.833 92.4336 237.5C93.3669 236.167 94.3336 234.7 95.3336 233.1L103.734 219.5C104.734 217.9 105.8 217.1 106.934 217.1C109.2 217.1 110.4 217.533 110.534 218.4C110.4 218.267 110.234 218.467 110.034 219C108.167 222.4 106.467 226.5 104.934 231.3C103.467 235.967 102.734 239.1 102.734 240.7C102.734 244.767 103.467 246.8 104.934 246.8C105.4 246.8 106.367 246.167 107.834 244.9C107.967 244.9 108.034 245.167 108.034 245.7C108.034 247.433 107.034 248.3 105.034 248.3ZM114.288 247.2C113.622 247.2 112.988 247.033 112.388 246.7C111.788 246.3 111.455 245.9 111.388 245.5C111.388 244.367 112.488 240.367 114.688 233.5C116.888 226.567 117.988 221.367 117.988 217.9C117.988 216.9 117.755 216.333 117.288 216.2C116.822 216 116.355 215.933 115.888 216C115.422 216 115.188 215.833 115.188 215.5C115.188 214.9 115.688 214.6 116.688 214.6C121.155 214.6 123.388 216.433 123.388 220.1C123.388 221.433 121.788 226.867 118.588 236.4C120.055 234.067 121.488 231.933 122.888 230C124.355 228 125.755 226.167 127.088 224.5C129.822 221.167 131.655 219.5 132.588 219.5C132.588 219.5 132.588 219.533 132.588 219.6C132.655 219.6 132.688 219.633 132.688 219.7C132.688 219.767 132.622 219.933 132.488 220.2C132.422 220.4 132.222 220.7 131.888 221.1C124.688 229.767 119.688 237.233 116.888 243.5L115.988 246.1C115.722 246.833 115.155 247.2 114.288 247.2ZM134.988 248.3C133.055 248.3 131.522 247.4 130.388 245.6C129.322 243.933 128.788 241.433 128.788 238.1C128.788 234.9 129.655 230.6 131.388 225.2C133.122 219.8 134.788 217.1 136.388 217.1H136.888C139.088 217.1 140.255 217.533 140.388 218.4C140.255 218.267 140.088 218.467 139.888 219C138.955 220.667 138.055 222.533 137.188 224.6C136.388 226.667 135.622 228.9 134.888 231.3C133.422 235.967 132.688 239.1 132.688 240.7C132.688 244.767 133.422 246.8 134.888 246.8C135.288 246.8 135.855 246.5 136.588 245.9C137.388 245.3 137.755 244.967 137.688 244.9C137.888 244.9 137.988 245.167 137.988 245.7C137.988 247.433 136.988 248.3 134.988 248.3ZM147.957 248.1C142.29 248.1 139.457 245.467 139.457 240.2C139.457 236.133 141.457 231.2 145.457 225.4C149.59 219.6 153.524 216.7 157.257 216.7C158.857 216.7 160.257 217.233 161.457 218.3C162.724 219.3 163.357 220.533 163.357 222C163.357 224.467 161.79 226.967 158.657 229.5C155.59 231.967 152.557 233.2 149.557 233.2C148.957 233.2 148.657 233.067 148.657 232.8L148.957 232.3C156.624 229.9 160.457 225.967 160.457 220.5C160.457 219.7 160.19 219.3 159.657 219.3C158.924 219.3 157.59 220.067 155.657 221.6C153.99 222.933 152.424 224.467 150.957 226.2C149.557 227.933 148.29 229.733 147.157 231.6C144.757 235.667 143.557 239.067 143.557 241.8C143.557 244.467 144.59 245.8 146.657 245.8C149.057 245.8 151.69 244.567 154.557 242.1C155.49 241.233 156.49 240.267 157.557 239.2C158.624 238.067 159.79 236.833 161.057 235.5C163.524 232.833 164.824 231.5 164.957 231.5C165.357 231.5 165.557 231.667 165.557 232C165.557 232.267 165.49 232.533 165.357 232.8C158.357 243 152.557 248.1 147.957 248.1ZM151.597 291.6C147.197 291.6 144.997 289.433 144.997 285.1C144.997 279.9 148.764 273.067 156.297 264.6C164.164 255.733 172.73 248.667 181.997 243.4C182.064 243.4 182.097 243.433 182.097 243.5C182.097 243.833 181.73 244.4 180.997 245.2C158.464 263.933 147.197 277.467 147.197 285.8C147.197 289 148.464 290.6 150.997 290.6C155.397 290.6 160.63 286.4 166.697 278C169.897 273.6 172.797 269.033 175.397 264.3C177.997 259.567 180.33 254.633 182.397 249.5C184.597 244.167 186.23 239.467 187.297 235.4C188.43 231.333 188.997 227.667 188.997 224.4C188.997 222.067 188.597 220.467 187.797 219.6C178.93 228.867 172.73 236.667 169.197 243C168.13 245.8 167.13 247.2 166.197 247.2C164.197 247.2 163.197 246.6 163.197 245.4C163.197 245 163.53 243.833 164.197 241.9C164.93 239.9 165.93 237.133 167.197 233.6L169.997 225.9C170.997 223.167 171.497 220.5 171.497 217.9V217.5C171.497 216.7 171.397 216.267 171.197 216.2C171.064 216.067 170.63 216 169.897 216C169.23 216 168.897 215.833 168.897 215.5C168.897 214.9 169.43 214.6 170.497 214.6C174.764 214.6 176.897 216.2 176.897 219.4C176.897 220.933 174.897 226.6 170.897 236.4C173.164 233.2 176.53 229.233 180.997 224.5C185.53 219.7 188.33 217.3 189.397 217.3C189.397 217.833 189.13 218.367 188.597 218.9C191.597 219.167 193.197 219.833 193.397 220.9C193.53 221.767 193.63 222.567 193.697 223.3C193.764 224.033 193.797 224.667 193.797 225.2C193.797 231.6 191.597 240.067 187.197 250.6C182.33 262.067 176.43 271.767 169.497 279.7C162.564 287.633 156.597 291.6 151.597 291.6ZM198.396 247.8C197.063 247.8 195.829 247.2 194.696 246C193.629 244.733 193.096 243.133 193.096 241.2C193.096 239.267 194.263 236.267 196.596 232.2C198.929 228.2 201.796 224.6 205.196 221.4C208.529 218.267 211.396 216.7 213.796 216.7H214.796C217.263 216.7 219.363 217.2 221.096 218.2C222.829 219.133 223.696 220.4 223.696 222C223.696 222.733 223.396 223.1 222.796 223.1C222.596 223.1 222.496 223 222.496 222.8C221.429 220.333 219.796 219.1 217.596 219.1C213.796 219.1 209.463 222.233 204.596 228.5C199.729 234.633 197.296 239.367 197.296 242.7C197.296 243.967 197.629 244.6 198.296 244.6C201.296 244.6 207.596 237.833 217.196 224.3C217.129 224.367 217.163 224.367 217.296 224.3C217.496 224.167 217.663 224.1 217.796 224.1C218.129 224.1 218.829 224.433 219.896 225.1C220.963 225.7 221.496 226.233 221.496 226.7C221.496 226.7 221.363 226.933 221.096 227.4C220.829 227.8 220.496 228.433 220.096 229.3C219.029 231.567 218.196 233.8 217.596 236C217.063 238.133 216.796 240 216.796 241.6C216.796 245.133 217.663 246.9 219.396 246.9L220.396 246.7L220.596 246.8C220.596 247.4 219.763 247.7 218.096 247.7C216.496 247.7 215.163 246.967 214.096 245.5C213.096 243.967 212.596 241.933 212.596 239.4C212.596 236.933 213.029 234.2 213.896 231.2C213.829 231.4 213.596 231.767 213.196 232.3C212.796 232.833 212.163 233.767 211.296 235.1C205.829 243.567 201.529 247.8 198.396 247.8ZM237.672 249.6C231.272 249.6 226.805 247.633 224.272 243.7L224.472 243.1C227.472 244.433 230.539 245.1 233.672 245.1C237.005 245.1 240.239 244.467 243.372 243.2C246.639 241.933 248.272 240.433 248.272 238.7C248.272 237.7 246.839 235.667 243.972 232.6C241.705 230.133 239.572 227.833 237.572 225.7C235.639 223.567 234.305 221.933 233.572 220.8C232.239 218.667 231.572 216.2 231.572 213.4C231.572 209.6 233.339 206.333 236.872 203.6C240.472 200.867 245.539 198.667 252.072 197C255.072 196.267 257.472 195.733 259.272 195.4C261.139 195 262.305 194.8 262.772 194.8C263.705 194.8 264.505 194.9 265.172 195.1L267.672 197.7C268.872 199.033 269.472 200.033 269.472 200.7C269.472 202.1 267.672 203.767 264.072 205.7C260.605 207.567 258.439 208.5 257.572 208.5L257.472 208L262.572 204.5C263.905 203.567 264.839 202.8 265.372 202.2C265.905 201.6 266.172 201.067 266.172 200.6C266.172 200 265.339 199.7 263.672 199.7C259.539 199.7 255.239 200.433 250.772 201.9C246.172 203.3 242.205 205.267 238.872 207.8C235.605 210.267 233.972 212.8 233.972 215.4C233.972 217.8 236.872 222.067 242.672 228.2C248.472 234.267 251.372 238.833 251.372 241.9C251.372 244.1 250.272 245.933 248.072 247.4C245.872 248.867 243.239 249.6 240.172 249.6H237.672Z" fill="black"/>
    </svg>
    