<svg width="214" height="152" viewBox="0 0 214 152" fill="none" xmlns="http://www.w3.org/2000/svg">
<path d="M50.2 99.16C45.08 99.16 42.52 98.7333 42.52 97.88C42.52 97.4 42.92 97.16 43.72 97.16H45C45.2133 97.2133 45.4267 97.24 45.64 97.24C45.9067 97.24 46.1733 97.24 46.44 97.24C51.8267 97.24 56.84 96.4133 61.48 94.76C66.2267 93.0533 70.12 90.9733 73.16 88.52C76.2533 85.96 78.68 83.24 80.44 80.36C82.2533 77.4267 83.16 74.6533 83.16 72.04C83.16 67.9333 81.5333 64.68 78.28 62.28C76.4133 60.8933 74.4133 59.9333 72.28 59.4C70.2 58.8667 68.0133 58.6 65.72 58.6H65.16C61.5333 58.6 57.1333 59.24 51.96 60.52C46.84 61.8 40.9733 63.6667 34.36 66.12C33.24 66.12 32.68 65.2933 32.68 63.64C32.68 63.1067 32.92 62.7333 33.4 62.52C33.6667 62.4133 34.12 62.2533 34.76 62.04C35.4 61.7733 36.4667 61.4267 37.96 61C42.76 59.56 47.3733 58.4933 51.8 57.8C56.2267 57.0533 60.3867 56.68 64.28 56.68C70.52 56.68 75.6933 58.1733 79.8 61.16C83.8533 64.0933 85.88 68.0667 85.88 73.08C85.88 76.12 85 79.1867 83.24 82.28C81.5333 85.3733 79.16 88.1733 76.12 90.68C73.08 93.24 69.2933 95.2667 64.76 96.76C60.2267 98.36 55.3733 99.16 50.2 99.16ZM40.76 102.84C39.9067 102.84 39.2133 102.333 38.68 101.32C38.1467 100.36 37.88 98.9467 37.88 97.08C37.88 90.52 41.6133 80.6533 49.08 67.48C49.08 67.2667 49.3467 66.7067 49.88 65.8C50.4667 64.8933 50.9467 64.0933 51.32 63.4C52.0133 62.0667 52.6533 61.4 53.24 61.4C53.8267 61.4 54.4933 61.56 55.24 61.88C55.9867 62.1467 56.36 62.44 56.36 62.76C55.6667 63.9333 54.9467 65.1067 54.2 66.28C53.5067 67.4533 52.7867 68.6267 52.04 69.8C43.88 83.9333 39.8 93.5867 39.8 98.76C39.8 99.4 39.9867 100.173 40.36 101.08C40.7333 101.987 40.92 102.547 40.92 102.76L40.76 102.84ZM98.5469 99.08C93.4269 99.08 89.8535 97.5067 87.8269 94.36L87.9869 93.88C90.3869 94.9467 92.8402 95.48 95.3469 95.48C98.0135 95.48 100.6 94.9733 103.107 93.96C105.72 92.9467 107.027 91.7467 107.027 90.36C107.027 89.56 105.88 87.9333 103.587 85.48C101.774 83.5067 100.067 81.6667 98.4669 79.96C96.9202 78.2533 95.8535 76.9467 95.2669 76.04C94.2002 74.3333 93.6669 72.36 93.6669 70.12C93.6669 67.08 95.0802 64.4667 97.9069 62.28C100.787 60.0933 104.84 58.3333 110.067 57C112.467 56.4133 114.387 55.9867 115.827 55.72C117.32 55.4 118.254 55.24 118.627 55.24C119.374 55.24 120.014 55.32 120.547 55.48L122.547 57.56C123.507 58.6267 123.987 59.4267 123.987 59.96C123.987 61.08 122.547 62.4133 119.667 63.96C116.894 65.4533 115.16 66.2 114.467 66.2L114.387 65.8L118.467 63C119.534 62.2533 120.28 61.64 120.707 61.16C121.134 60.68 121.347 60.2533 121.347 59.88C121.347 59.4 120.68 59.16 119.347 59.16C116.04 59.16 112.6 59.7467 109.027 60.92C105.347 62.04 102.174 63.6133 99.5069 65.64C96.8935 67.6133 95.5869 69.64 95.5869 71.72C95.5869 73.64 97.9069 77.0533 102.547 81.96C107.187 86.8133 109.507 90.4667 109.507 92.92C109.507 94.68 108.627 96.1467 106.867 97.32C105.107 98.4933 103 99.08 100.547 99.08H98.5469Z" fill="black"/>
<path d="M136.217 75.9861C136.217 108.151 109.472 134.236 76.467 134.236C43.462 134.236 16.717 108.151 16.717 75.9861C16.717 43.8215 43.462 17.7361 76.467 17.7361C109.472 17.7361 136.217 43.8215 136.217 75.9861Z" stroke="#CF3D77" stroke-width="0.5"/>
<path d="M147.771 89.7574L146.92 89.5385L148.948 81.6506L143.557 80.2643L141.612 87.8307L140.76 87.6118L142.706 80.0454L136.275 78.3916L136.53 77.3986L150.055 80.8764L147.771 89.7574Z" fill="black"/>
<path d="M128.771 105.167L138.807 114.878L134.8 119.019C133.043 120.834 131.363 120.965 129.758 119.412C128.368 118.068 128.337 116.13 129.662 113.599L121.708 112.466L122.686 111.455L130.565 112.624L131.063 113.106C129.375 115.459 129.186 117.269 130.496 118.537C131.703 119.705 132.959 119.615 134.263 118.268L137.441 114.984L128.058 105.904L128.771 105.167Z" fill="black"/>
<path d="M108.036 134.968C107.184 130.896 104.837 129.262 100.995 130.066C97.222 130.855 95.7618 133.286 96.6137 137.358C97.455 141.379 99.7619 142.995 103.534 142.206C107.377 141.402 108.878 138.989 108.036 134.968ZM109.124 134.681C110.093 139.314 108.29 142.109 103.714 143.066C99.2091 144.008 96.4718 142.163 95.5025 137.531C94.5385 132.923 96.3092 130.148 100.815 129.206C105.39 128.249 108.16 130.074 109.124 134.681Z" fill="black"/>
<path d="M66.5979 134.677L60.7118 147.341L59.5163 146.785L56.2124 131.767L51.059 142.855L50.2177 142.464L56.1037 129.8L56.8565 130.15L60.3562 145.905L65.7566 134.286L66.5979 134.677Z" fill="black"/>
<path d="M17.7881 117.899L18.5133 117.403L21.2168 121.351L32.0141 113.958L32.5934 114.804L21.7961 122.197L24.4445 126.065L23.7193 126.561L17.7881 117.899Z" fill="black"/>
<path d="M4.66942 87.3935L5.54437 87.3102L6.3162 95.4181L11.8576 94.8906L11.1172 87.1133L11.9921 87.03L12.7325 94.8073L18.4683 94.2613L17.6835 86.0173L18.5585 85.934L19.4404 95.1988L5.53842 96.5222L4.66942 87.3935Z" fill="black"/>
<path d="M16.5464 64.1316L4.29034 57.4378L4.92228 56.2807L20.1231 53.9564L9.39262 48.0958L9.83732 47.2816L22.0933 53.9754L21.6954 54.7039L5.74637 57.1759L16.991 63.3174L16.5464 64.1316Z" fill="black"/>
<path d="M39.2301 29.344C42.7062 27.6347 43.4906 24.8403 41.583 20.9611C39.8996 17.5375 37.3197 16.6803 33.8436 18.3896L30.382 20.0918L35.7685 31.0461L39.2301 29.344ZM35.2362 32.2873L29.074 19.7555L33.5434 17.5578C37.633 15.5469 40.6488 16.5161 42.5908 20.4655C44.7569 24.8706 43.7659 28.093 39.6179 30.1327L35.2362 32.2873Z" fill="black"/>
<path d="M85.8428 4.59396L82.2194 17.1682L89.9891 19.4072L89.7458 20.2517L80.9907 17.7289L84.8575 4.31003L85.8428 4.59396Z" fill="black"/>
<path d="M108.098 25.0047L107.352 24.205L121.873 19.2978L122.706 20.1903L116.826 34.3584L115.993 33.4659L118.008 28.7543L113.737 24.1774L114.586 23.7992L118.391 27.8762L121.661 20.244L108.098 25.0047Z" fill="black"/>
<path d="M132.384 53.2308L146.208 51.2519L147.052 57.1488C147.429 59.7783 146.544 61.2466 144.398 61.5538C142.825 61.7789 141.564 60.9861 140.615 59.1753C140.563 61.2479 139.628 62.4142 137.811 62.6744C135.149 63.0554 133.612 61.8055 133.199 58.9247L132.384 53.2308ZM134.054 58.6939C134.374 60.9237 135.564 61.8911 137.627 61.5958C139.45 61.3347 140.163 59.8089 139.763 57.0184L139.652 56.245L140.339 56.1467C141.09 59.3276 142.371 60.7884 144.182 60.5291C145.793 60.2985 146.457 59.1907 146.173 57.2057L145.484 52.3915L133.4 54.1213L134.054 58.6939Z" fill="black"/>
</svg>
